<mxfile host="app.diagrams.net" modified="2024-04-21T11:48:28.357Z" agent="Mozilla/5.0 (Windows NT 10.0; Win64; x64) AppleWebKit/537.36 (KHTML, like Gecko) Chrome/124.0.0.0 Safari/537.36 Edg/124.0.0.0" etag="N7p0ZIyj8gQpaRwhMAsr" version="24.2.5" type="github">
  <diagram name="Page-1" id="i_VaZ7OJ8o2V3wQM34su">
    <mxGraphModel dx="1631" dy="938" grid="1" gridSize="10" guides="1" tooltips="1" connect="1" arrows="1" fold="1" page="1" pageScale="1" pageWidth="850" pageHeight="1100" math="0" shadow="0">
      <root>
        <mxCell id="0" />
        <mxCell id="1" parent="0" />
        <mxCell id="u5D1p8PYzqS9Afp-8pXa-1" value="Wheel Network" style="text;html=1;align=center;verticalAlign=middle;whiteSpace=wrap;rounded=0;strokeWidth=5;fontSize=18;" vertex="1" parent="1">
          <mxGeometry x="110" y="150" width="150" height="60" as="geometry" />
        </mxCell>
        <mxCell id="u5D1p8PYzqS9Afp-8pXa-11" style="edgeStyle=orthogonalEdgeStyle;rounded=0;orthogonalLoop=1;jettySize=auto;html=1;" edge="1" parent="1" source="u5D1p8PYzqS9Afp-8pXa-2" target="u5D1p8PYzqS9Afp-8pXa-3">
          <mxGeometry relative="1" as="geometry">
            <Array as="points">
              <mxPoint x="410" y="260" />
              <mxPoint x="410" y="260" />
            </Array>
          </mxGeometry>
        </mxCell>
        <mxCell id="u5D1p8PYzqS9Afp-8pXa-2" value="&lt;font style=&quot;font-size: 20px;&quot;&gt;Executives&lt;/font&gt;" style="shape=mxgraph.cisco.people.man_woman;html=1;pointerEvents=1;dashed=0;fillColor=#036897;strokeColor=#ffffff;strokeWidth=2;verticalLabelPosition=bottom;verticalAlign=top;align=center;outlineConnect=0;" vertex="1" parent="1">
          <mxGeometry x="356.5" y="50" width="156" height="150" as="geometry" />
        </mxCell>
        <mxCell id="u5D1p8PYzqS9Afp-8pXa-13" style="edgeStyle=orthogonalEdgeStyle;rounded=0;orthogonalLoop=1;jettySize=auto;html=1;exitX=0.89;exitY=0.24;exitDx=0;exitDy=0;exitPerimeter=0;entryX=0.94;entryY=0.94;entryDx=0;entryDy=0;entryPerimeter=0;" edge="1" parent="1">
          <mxGeometry relative="1" as="geometry">
            <mxPoint x="458.0099999999997" y="331.20000000000005" as="sourcePoint" />
            <mxPoint x="461.1899999999999" y="191" as="targetPoint" />
            <Array as="points">
              <mxPoint x="479.19" y="331" />
              <mxPoint x="479.19" y="240" />
              <mxPoint x="462.19" y="240" />
              <mxPoint x="462.19" y="191" />
            </Array>
          </mxGeometry>
        </mxCell>
        <mxCell id="u5D1p8PYzqS9Afp-8pXa-3" value="&lt;font style=&quot;font-size: 17px;&quot;&gt;Management&lt;/font&gt;" style="shape=mxgraph.cisco.people.androgenous_person;html=1;pointerEvents=1;dashed=0;fillColor=#036897;strokeColor=#ffffff;strokeWidth=2;verticalLabelPosition=bottom;verticalAlign=top;align=center;outlineConnect=0;" vertex="1" parent="1">
          <mxGeometry x="360" y="300" width="149" height="130" as="geometry" />
        </mxCell>
        <mxCell id="u5D1p8PYzqS9Afp-8pXa-4" value="" style="verticalLabelPosition=bottom;html=1;verticalAlign=top;align=center;strokeColor=none;fillColor=#00BEF2;shape=mxgraph.azure.user;" vertex="1" parent="1">
          <mxGeometry x="210.5" y="410" width="89.5" height="90" as="geometry" />
        </mxCell>
        <mxCell id="u5D1p8PYzqS9Afp-8pXa-5" value="" style="verticalLabelPosition=bottom;html=1;verticalAlign=top;align=center;strokeColor=none;fillColor=#00BEF2;shape=mxgraph.azure.user;" vertex="1" parent="1">
          <mxGeometry x="210.5" y="540" width="89.5" height="90" as="geometry" />
        </mxCell>
        <mxCell id="u5D1p8PYzqS9Afp-8pXa-6" value="" style="verticalLabelPosition=bottom;html=1;verticalAlign=top;align=center;strokeColor=none;fillColor=#00BEF2;shape=mxgraph.azure.user;" vertex="1" parent="1">
          <mxGeometry x="570" y="410" width="89.5" height="90" as="geometry" />
        </mxCell>
        <mxCell id="u5D1p8PYzqS9Afp-8pXa-7" value="" style="verticalLabelPosition=bottom;html=1;verticalAlign=top;align=center;strokeColor=none;fillColor=#00BEF2;shape=mxgraph.azure.user;" vertex="1" parent="1">
          <mxGeometry x="570" y="540" width="89.5" height="90" as="geometry" />
        </mxCell>
        <mxCell id="u5D1p8PYzqS9Afp-8pXa-10" value="" style="verticalLabelPosition=bottom;html=1;verticalAlign=top;align=center;strokeColor=none;fillColor=#00BEF2;shape=mxgraph.azure.user;" vertex="1" parent="1">
          <mxGeometry x="570" y="670" width="89.5" height="90" as="geometry" />
        </mxCell>
        <mxCell id="u5D1p8PYzqS9Afp-8pXa-12" style="edgeStyle=orthogonalEdgeStyle;rounded=0;orthogonalLoop=1;jettySize=auto;html=1;exitX=0.01;exitY=0.99;exitDx=0;exitDy=0;exitPerimeter=0;entryX=0.5;entryY=0;entryDx=0;entryDy=0;entryPerimeter=0;" edge="1" parent="1" source="u5D1p8PYzqS9Afp-8pXa-3" target="u5D1p8PYzqS9Afp-8pXa-4">
          <mxGeometry relative="1" as="geometry">
            <Array as="points">
              <mxPoint x="361" y="365" />
              <mxPoint x="255" y="365" />
            </Array>
          </mxGeometry>
        </mxCell>
        <mxCell id="u5D1p8PYzqS9Afp-8pXa-19" style="edgeStyle=orthogonalEdgeStyle;rounded=0;orthogonalLoop=1;jettySize=auto;html=1;exitX=0.5;exitY=0;exitDx=0;exitDy=0;exitPerimeter=0;entryX=0.5;entryY=1;entryDx=0;entryDy=0;entryPerimeter=0;" edge="1" parent="1" source="u5D1p8PYzqS9Afp-8pXa-7" target="u5D1p8PYzqS9Afp-8pXa-6">
          <mxGeometry relative="1" as="geometry" />
        </mxCell>
        <mxCell id="u5D1p8PYzqS9Afp-8pXa-9" value="" style="verticalLabelPosition=bottom;html=1;verticalAlign=top;align=center;strokeColor=none;fillColor=#00BEF2;shape=mxgraph.azure.user;" vertex="1" parent="1">
          <mxGeometry x="210.5" y="670" width="89.5" height="90" as="geometry" />
        </mxCell>
        <mxCell id="u5D1p8PYzqS9Afp-8pXa-24" value="" style="verticalLabelPosition=bottom;html=1;verticalAlign=top;align=center;strokeColor=none;fillColor=#00BEF2;shape=mxgraph.azure.user;" vertex="1" parent="1">
          <mxGeometry x="389.75" y="670" width="89.5" height="90" as="geometry" />
        </mxCell>
        <mxCell id="u5D1p8PYzqS9Afp-8pXa-25" style="edgeStyle=orthogonalEdgeStyle;rounded=0;orthogonalLoop=1;jettySize=auto;html=1;exitX=0.5;exitY=1;exitDx=0;exitDy=0;exitPerimeter=0;entryX=0.5;entryY=0;entryDx=0;entryDy=0;entryPerimeter=0;" edge="1" parent="1" source="u5D1p8PYzqS9Afp-8pXa-4" target="u5D1p8PYzqS9Afp-8pXa-5">
          <mxGeometry relative="1" as="geometry" />
        </mxCell>
        <mxCell id="u5D1p8PYzqS9Afp-8pXa-26" style="edgeStyle=orthogonalEdgeStyle;rounded=0;orthogonalLoop=1;jettySize=auto;html=1;exitX=0.5;exitY=1;exitDx=0;exitDy=0;exitPerimeter=0;entryX=0.5;entryY=0;entryDx=0;entryDy=0;entryPerimeter=0;" edge="1" parent="1" source="u5D1p8PYzqS9Afp-8pXa-5" target="u5D1p8PYzqS9Afp-8pXa-9">
          <mxGeometry relative="1" as="geometry" />
        </mxCell>
        <mxCell id="u5D1p8PYzqS9Afp-8pXa-27" style="edgeStyle=orthogonalEdgeStyle;rounded=0;orthogonalLoop=1;jettySize=auto;html=1;exitX=0.87;exitY=0.65;exitDx=0;exitDy=0;exitPerimeter=0;entryX=0.14;entryY=0.65;entryDx=0;entryDy=0;entryPerimeter=0;" edge="1" parent="1" source="u5D1p8PYzqS9Afp-8pXa-9" target="u5D1p8PYzqS9Afp-8pXa-24">
          <mxGeometry relative="1" as="geometry" />
        </mxCell>
        <mxCell id="u5D1p8PYzqS9Afp-8pXa-28" style="edgeStyle=orthogonalEdgeStyle;rounded=0;orthogonalLoop=1;jettySize=auto;html=1;exitX=0.87;exitY=0.65;exitDx=0;exitDy=0;exitPerimeter=0;entryX=0.14;entryY=0.65;entryDx=0;entryDy=0;entryPerimeter=0;" edge="1" parent="1" source="u5D1p8PYzqS9Afp-8pXa-24" target="u5D1p8PYzqS9Afp-8pXa-10">
          <mxGeometry relative="1" as="geometry" />
        </mxCell>
        <mxCell id="u5D1p8PYzqS9Afp-8pXa-29" style="edgeStyle=orthogonalEdgeStyle;rounded=0;orthogonalLoop=1;jettySize=auto;html=1;exitX=0.5;exitY=0;exitDx=0;exitDy=0;exitPerimeter=0;entryX=0.5;entryY=1;entryDx=0;entryDy=0;entryPerimeter=0;" edge="1" parent="1" source="u5D1p8PYzqS9Afp-8pXa-10" target="u5D1p8PYzqS9Afp-8pXa-7">
          <mxGeometry relative="1" as="geometry" />
        </mxCell>
        <mxCell id="u5D1p8PYzqS9Afp-8pXa-30" style="edgeStyle=orthogonalEdgeStyle;rounded=0;orthogonalLoop=1;jettySize=auto;html=1;exitX=0.5;exitY=0;exitDx=0;exitDy=0;exitPerimeter=0;entryX=1;entryY=0.5;entryDx=0;entryDy=0;entryPerimeter=0;" edge="1" parent="1" source="u5D1p8PYzqS9Afp-8pXa-6" target="u5D1p8PYzqS9Afp-8pXa-3">
          <mxGeometry relative="1" as="geometry" />
        </mxCell>
      </root>
    </mxGraphModel>
  </diagram>
</mxfile>
